<svg width="64" height="64" viewBox="0 0 64 64" xmlns="http://www.w3.org/2000/svg">
  <!-- Background circle -->
  <circle cx="32" cy="32" r="30" fill="#326ce5" stroke="#1e40af" stroke-width="2"/>

  <!-- Scale/balance symbol -->
  <g transform="translate(32,32)">
    <!-- Horizontal bar -->
    <line x1="-12" y1="0" x2="12" y2="0" stroke="white" stroke-width="3" stroke-linecap="round"/>

    <!-- Left scale pan -->
    <ellipse cx="-8" cy="8" rx="4" ry="3" fill="white" opacity="0.9"/>
    <circle cx="-8" cy="8" r="1.5" fill="#326ce5"/>

    <!-- Right scale pan -->
    <ellipse cx="8" cy="8" rx="4" ry="3" fill="white" opacity="0.9"/>
    <circle cx="8" cy="8" r="1.5" fill="#326ce5"/>

    <!-- Vertical supports -->
    <line x1="-12" y1="0" x2="-12" y2="12" stroke="white" stroke-width="2"/>
    <line x1="12" y1="0" x2="12" y2="12" stroke="white" stroke-width="2"/>

    <!-- Base -->
    <line x1="-16" y1="12" x2="16" y2="12" stroke="white" stroke-width="3" stroke-linecap="round"/>

    <!-- Optimization arrows -->
    <polygon points="-6,4 -4,2 -2,4" fill="#10b981" stroke="none"/>
    <polygon points="2,-2 4,0 6,-2" fill="#10b981" stroke="none"/>
  </g>

  <!-- Kubernetes-style pods/containers -->
  <g transform="translate(32,32)">
    <!-- Small container representations -->
    <rect x="-20" y="-18" width="6" height="4" rx="1" fill="white" opacity="0.8"/>
    <rect x="-10" y="-18" width="6" height="4" rx="1" fill="white" opacity="0.8"/>
    <rect x="4" y="-18" width="6" height="4" rx="1" fill="white" opacity="0.8"/>
    <rect x="14" y="-18" width="6" height="4" rx="1" fill="white" opacity="0.8"/>

    <!-- Resource optimization indicators -->
    <circle cx="-17" cy="-16" r="1" fill="#10b981"/>
    <circle cx="-7" cy="-16" r="1" fill="#10b981"/>
    <circle cx="7" cy="-16" r="1" fill="#10b981"/>
    <circle cx="17" cy="-16" r="1" fill="#10b981"/>
  </g>
</svg>
